<svg width="162" height="163" viewBox="0 0 162 163" fill="none" xmlns="http://www.w3.org/2000/svg">
<path d="M100.604 40.6102C100.152 38.958 99.0665 37.5512 97.5825 36.696C96.0985 35.8408 94.3368 35.6067 92.681 36.0445L69.8524 42.1545L40.041 14.4917L31.7825 16.7074L49.6425 47.5259L28.2239 53.233L19.7639 46.653L13.5197 48.3316L24.6654 67.6687L95.971 48.6002C99.4624 47.593 101.477 44.0345 100.604 40.6102ZM141.091 68.0044L134.377 81.433H100.805L94.091 68.0044L100.805 61.2901H114.234V47.8616H120.948V61.2901H134.377L141.091 68.0044ZM147.805 135.147V148.576H13.5197V135.147H100.805V88.1472H134.377V135.147H147.805Z" fill="black"/>
</svg>
