<svg width="32" height="33" viewBox="0 0 32 33" fill="none" xmlns="http://www.w3.org/2000/svg">
<path d="M24 15.4432H7.99998V8.77655H24V15.4432ZM22 23.4432C21.4695 23.4432 20.9608 23.2325 20.5858 22.8574C20.2107 22.4824 20 21.9737 20 21.4432C20 20.9128 20.2107 20.4041 20.5858 20.029C20.9608 19.6539 21.4695 19.4432 22 19.4432C22.5304 19.4432 23.0391 19.6539 23.4142 20.029C23.7893 20.4041 24 20.9128 24 21.4432C24 21.9737 23.7893 22.4824 23.4142 22.8574C23.0391 23.2325 22.5304 23.4432 22 23.4432ZM9.99998 23.4432C9.46955 23.4432 8.96084 23.2325 8.58577 22.8574C8.21069 22.4824 7.99998 21.9737 7.99998 21.4432C7.99998 20.9128 8.21069 20.4041 8.58577 20.029C8.96084 19.6539 9.46955 19.4432 9.99998 19.4432C10.5304 19.4432 11.0391 19.6539 11.4142 20.029C11.7893 20.4041 12 20.9128 12 21.4432C12 21.9737 11.7893 22.4824 11.4142 22.8574C11.0391 23.2325 10.5304 23.4432 9.99998 23.4432ZM5.33331 22.1099C5.33331 23.2832 5.85331 24.3366 6.66665 25.0699V27.4432C6.66665 27.7968 6.80712 28.136 7.05717 28.386C7.30722 28.6361 7.64636 28.7766 7.99998 28.7766H9.33331C9.68693 28.7766 10.0261 28.6361 10.2761 28.386C10.5262 28.136 10.6666 27.7968 10.6666 27.4432V26.1099H21.3333V27.4432C21.3333 27.7968 21.4738 28.136 21.7238 28.386C21.9739 28.6361 22.313 28.7766 22.6666 28.7766H24C24.3536 28.7766 24.6927 28.6361 24.9428 28.386C25.1928 28.136 25.3333 27.7968 25.3333 27.4432V25.0699C26.1466 24.3366 26.6666 23.2832 26.6666 22.1099V8.77655C26.6666 4.10988 21.8933 3.44322 16 3.44322C10.1066 3.44322 5.33331 4.10988 5.33331 8.77655V22.1099Z" fill="black"/>
</svg>
