<svg width="24" height="25" viewBox="0 0 24 25" fill="none" xmlns="http://www.w3.org/2000/svg">
<path d="M19 19.7766H5V8.77655H19V19.7766ZM16 1.77655V3.77655H8V1.77655H6V3.77655H5C3.89 3.77655 3 4.66655 3 5.77655V19.7766C3 20.307 3.21071 20.8157 3.58579 21.1908C3.96086 21.5658 4.46957 21.7766 5 21.7766H19C19.5304 21.7766 20.0391 21.5658 20.4142 21.1908C20.7893 20.8157 21 20.307 21 19.7766V5.77655C21 5.24612 20.7893 4.73741 20.4142 4.36234C20.0391 3.98726 19.5304 3.77655 19 3.77655H18V1.77655" fill="black"/>
</svg>
