<svg width="54" height="44" viewBox="0 0 54 44" fill="none" xmlns="http://www.w3.org/2000/svg">
<path d="M48.3333 11.3334L27 24.6667L5.66665 11.3334V6.00008L27 19.3334L48.3333 6.00008V11.3334ZM48.3333 0.666748H5.66665C2.70665 0.666748 0.333313 3.04008 0.333313 6.00008V38.0001C0.333313 39.4146 0.895216 40.7711 1.89541 41.7713C2.8956 42.7715 4.25216 43.3334 5.66665 43.3334H48.3333C49.7478 43.3334 51.1044 42.7715 52.1045 41.7713C53.1047 40.7711 53.6666 39.4146 53.6666 38.0001V6.00008C53.6666 4.58559 53.1047 3.22904 52.1045 2.22884C51.1044 1.22865 49.7478 0.666748 48.3333 0.666748Z" fill="black"/>
</svg>
