<svg width="49" height="57" viewBox="0 0 49 57" fill="none" xmlns="http://www.w3.org/2000/svg">
<path d="M24.6667 0.333496C34.5967 0.333496 42.6667 7.42683 42.6667 16.2002C42.6667 28.0935 24.6667 45.6668 24.6667 45.6668C24.6667 45.6668 6.66675 28.0935 6.66675 16.2002C6.66675 7.42683 14.7367 0.333496 24.6667 0.333496ZM24.6667 11.0002C23.0754 11.0002 21.5493 11.5621 20.4241 12.5623C19.2989 13.5625 18.6667 14.919 18.6667 16.3335C18.6667 17.748 19.2989 19.1045 20.4241 20.1047C21.5493 21.1049 23.0754 21.6668 24.6667 21.6668C26.258 21.6668 27.7842 21.1049 28.9094 20.1047C30.0346 19.1045 30.6667 17.748 30.6667 16.3335C30.6667 14.919 30.0346 13.5625 28.9094 12.5623C27.7842 11.5621 26.258 11.0002 24.6667 11.0002ZM48.6667 45.6668C48.6667 51.5602 37.9268 56.3335 24.6667 56.3335C11.4067 56.3335 0.666748 51.5602 0.666748 45.6668C0.666748 42.2268 4.32675 39.1602 9.99675 37.2135L11.9167 39.6402C8.67675 40.8402 6.66675 42.4935 6.66675 44.3335C6.66675 48.0135 14.7367 51.0002 24.6667 51.0002C34.5967 51.0002 42.6667 48.0135 42.6667 44.3335C42.6667 42.4935 40.6567 40.8402 37.4167 39.6402L39.3367 37.2135C45.0067 39.1602 48.6667 42.2268 48.6667 45.6668Z" fill="black"/>
</svg>
