<svg width="57" height="37" viewBox="0 0 57 37" fill="none" xmlns="http://www.w3.org/2000/svg">
<path fill-rule="evenodd" clip-rule="evenodd" d="M0 18.0025C0 17.4721 0.210714 16.9634 0.585786 16.5883C0.960859 16.2132 1.46957 16.0025 2 16.0025H49.172L36.584 3.41853C36.2085 3.04298 35.9975 2.53363 35.9975 2.00253C35.9975 1.47142 36.2085 0.962073 36.584 0.586526C36.9595 0.210979 37.4689 1.25132e-08 38 0C38.5311 -1.25132e-08 39.0405 0.210979 39.416 0.586526L55.416 16.5865C55.6023 16.7723 55.75 16.993 55.8508 17.236C55.9517 17.479 56.0036 17.7395 56.0036 18.0025C56.0036 18.2656 55.9517 18.5261 55.8508 18.7691C55.75 19.012 55.6023 19.2327 55.416 19.4185L39.416 35.4185C39.0405 35.7941 38.5311 36.0051 38 36.0051C37.4689 36.0051 36.9595 35.7941 36.584 35.4185C36.2085 35.043 35.9975 34.5336 35.9975 34.0025C35.9975 33.4714 36.2085 32.9621 36.584 32.5865L49.172 20.0025H2C1.46957 20.0025 0.960859 19.7918 0.585786 19.4167C0.210714 19.0417 0 18.533 0 18.0025Z" fill="black"/>
</svg>
