<svg width="53" height="53" viewBox="0 0 53 53" fill="none" xmlns="http://www.w3.org/2000/svg">
<path d="M9.70977 11.8629C9.22324 11.9768 9.53379 11.9561 9.13008 12.0078C7.40137 12.3805 8.68496 12.7117 9.70977 11.8629ZM40.1123 12.5564C40.2365 12.4736 40.6713 12.0492 39.3152 11.6352C39.398 12.0596 39.0357 12.0182 39.0357 12.2563C40.0398 13.1672 40.4539 14.751 41.7375 15.0822C41.9859 13.9436 40.5988 13.3846 40.1123 12.5564ZM8.78848 11.5316C8.94375 12.4529 9.6373 10.5586 9.64766 9.88574C9.37852 10.041 9.10938 10.1963 8.82988 10.3205C9.48203 10.6518 8.9127 11.0037 8.20879 11.5316C6.78027 13.3121 9.54414 10.1445 8.78848 11.5316ZM26.5 0C11.8629 0 0 11.8629 0 26.5C0 41.1268 11.8629 53 26.5 53C41.1371 53 53 41.1268 53 26.5C53 11.8629 41.1371 0 26.5 0ZM27.2039 8.88164L27.3281 8.92305C26.8312 9.56484 29.916 11.4385 27.7008 11.5938C25.6305 12.1838 28.5703 11.0555 26.9658 11.2521C27.8146 10.0721 26.293 10.0514 27.2039 8.88164ZM14.6371 10.5793C13.8918 9.9582 11.5523 11.4281 12.3701 11.0762C14.399 10.2791 12.5047 11.159 12.9809 12.1113C12.5461 13.0119 12.8359 11.2211 11.7594 12.2873C10.983 12.4633 9.07832 14.223 9.31641 13.6848C9.2543 14.5232 7.04941 15.517 6.74922 16.9145C6.02461 18.8502 6.57324 16.842 6.43867 16.0863C5.40352 14.7717 3.51953 18.3119 4.07852 19.7094C5.02051 18.0531 4.94805 19.5334 4.26484 20.2684C4.9584 21.5416 3.6334 23.1979 4.94805 24.1398C5.52773 24.2744 6.68711 22.1938 6.17988 24.3572C6.53184 22.4836 7.15293 24.8023 8.15703 24.2848C8.21914 25.2682 8.82988 24.8127 8.96445 26.0031C10.6414 25.8789 12.1734 28.7152 10.1756 29.2535C10.4758 29.1707 11.0658 29.6986 11.749 29.2949C12.9084 30.2162 15.9621 30.3301 16.0449 32.6074C13.9436 33.6115 15.5273 36.365 13.7055 37.3484C11.6145 37.0379 12.9912 39.926 12.1113 39.5947C12.4633 41.6754 9.99961 39.3256 10.952 40.4746C12.7014 41.5512 10.1859 41.3338 10.9727 42.1205C10.0928 41.9342 11.5213 43.7561 11.7594 44.4289C13.0223 46.4785 10.6725 43.9734 9.97891 43.2902C9.31641 41.9652 7.75332 39.4291 7.31855 37.3484C7.07012 34.3258 4.73066 32.2969 4.19238 29.3467C3.6541 27.7008 5.67266 25.0611 4.58574 24.1398C3.64375 23.4049 4.02676 20.8895 3.46777 19.5645C4.86523 13.5088 9.30605 8.40547 14.6371 5.38281C14.0885 5.78652 17.7736 4.3373 17.3492 4.68926C17.2354 4.94805 19.5023 3.70586 20.8688 3.51953C20.7238 3.54023 17.3182 4.76172 18.2602 4.59609C16.8006 5.31035 18.1152 4.90664 18.8398 4.54434C17.3906 5.61055 16.2727 5.31035 14.6268 6.25234C12.9705 6.68711 13.3121 8.40547 12.132 9.26465C12.8256 9.38887 14.5646 7.47383 15.5791 6.80098C17.9082 5.67266 14.399 8.85059 16.6143 7.48418C15.8689 8.17773 16.0242 9.28535 15.5687 9.5959C15.341 9.53379 16.4693 10.1342 14.6371 10.5793ZM18.2602 5.81758C18.0221 6.13848 17.6908 6.83203 17.4941 6.40762C17.225 6.54219 17.1215 7.12188 16.6143 6.65605C16.9145 6.43867 17.225 5.92109 16.635 6.24199C16.9041 5.95215 19.3057 5.13437 19.1711 4.82383C19.5955 4.55469 19.5541 4.42012 19.0676 4.58574C18.8191 4.50293 19.6576 3.79902 20.7756 3.70586C20.9309 3.70586 20.993 3.80938 20.7135 3.77832C19.0262 4.2959 19.7508 4.15098 20.8895 3.77832C20.4547 4.02676 20.1545 4.09922 20.082 4.21309C21.2207 3.79902 20.0199 4.51328 20.2787 4.46152C19.9578 4.62715 20.3305 4.67891 19.7094 4.91699C19.8232 4.82383 18.6949 5.58984 19.3678 5.36211C18.7156 5.9832 18.4258 5.99355 18.2602 5.81758ZM19.2539 7.29785C19.2746 6.3041 20.7031 5.67266 20.5271 5.6209C22.2869 4.79277 19.9164 5.65195 21.3035 4.90664C21.8211 4.85488 22.9184 3.19863 24.44 3.09512C26.117 2.58789 25.3406 3.12617 26.5828 2.65L26.3344 2.85703C26.117 2.88809 26.3861 3.27109 25.5994 3.85078C25.5166 4.75137 24.0984 4.3373 24.8023 5.3C24.3469 4.64785 23.6637 5.2793 24.5229 5.34141C23.6016 6.04531 21.4588 6.16953 20.434 7.33926C19.7715 8.2916 19.1607 7.99141 19.2539 7.29785ZM26.6139 10.6104C25.91 12.308 25.2268 10.3619 26.4689 10.0514C26.7795 10.217 26.9037 10.2688 26.6139 10.6104ZM23.9639 7.21504C23.7568 6.44902 23.9225 6.85273 25.1543 6.49043C26.0031 7.10117 24.3986 7.50488 23.9639 7.21504ZM43.2385 37.5969C42.2654 35.9199 44.4186 34.3672 45.1432 32.9594C45.05 34.6053 44.843 36.2305 43.2385 37.5969ZM46.9029 18.4361C45.8471 18.5189 44.8947 18.7674 43.9424 18.167C41.7479 15.7654 44.3461 20.8791 45.0707 18.7881C47.6793 19.7818 45.0293 24.0674 43.3834 23.6223C42.4621 21.6348 41.3234 19.4506 39.3152 18.4775C40.8576 20.1855 41.6236 22.2869 43.2799 23.8293C43.3937 25.9824 45.5779 23.0426 45.4434 24.7092C45.6504 27.5766 42.2033 29.2949 42.8037 32.1727C44.0873 34.7916 40.3297 35.2678 40.7541 37.6176C39.2428 39.3049 37.6279 41.5822 34.9158 41.2199C34.9158 39.7914 34.1912 38.5803 34.0256 37.1104C32.5557 35.2471 35.5783 33.2492 33.7047 31.3031C31.5412 30.8166 34.1498 27.8354 31.9242 28.1148C30.5889 26.7795 28.6324 28.0734 26.7174 28.0838C24.3158 28.3115 21.8418 25.1336 22.908 22.8873C22.0592 20.5479 25.5994 19.8646 25.6926 17.8047C27.3902 16.3865 29.8021 16.5625 32.1002 16.2313C31.9346 17.8771 33.6736 17.8875 34.9883 18.4361C35.7232 16.6557 38.0109 18.726 39.574 17.5977C40.1123 14.9684 38.0523 16.5521 36.8723 15.7137C35.4438 13.6227 39.926 14.6371 39.4602 13.5398C37.7211 13.5295 38.7045 11.3971 37.4727 12.5875C38.5803 12.7842 37.276 13.6537 37.307 12.66C35.6301 12.1734 37.2449 14.5646 36.3961 14.7924C35.1021 14.2541 35.7129 15.4031 35.8475 15.5791C35.2885 16.7902 34.6053 13.7986 33.0215 13.8814C31.448 12.4426 32.4004 14.5336 33.7668 14.8752C33.477 14.958 33.9324 16.1484 33.5701 15.6412C32.4418 14.0885 30.299 13.0533 29.0258 14.958C28.8912 16.7385 25.2682 17.2457 25.8479 15.165C24.999 13.0119 28.4771 15.1029 28.1562 13.3846C25.9203 11.9043 28.767 12.3805 29.5227 10.9934C31.241 11.0451 29.5951 9.58555 30.4025 9.16113C30.3197 10.7449 31.7172 10.4447 32.8248 10.1445C32.5557 9.23359 33.4873 9.26465 32.918 8.50898C35.4852 7.48418 30.9615 8.98516 31.8725 6.73887C30.7648 5.97285 31.4066 8.42617 31.8725 8.68496C31.9035 9.44063 31.2617 10.3723 30.3818 8.78848C29.0982 9.62695 29.2328 7.93965 29.15 8.11563C29.0051 7.46348 30.123 7.43242 30.1334 6.29375C30.0402 5.56914 30.0609 5.18613 30.5785 5.14473C30.6199 5.24824 32.7006 5.2793 33.4355 6.13848C31.4273 5.73477 33.1353 6.46973 34.0359 6.88379C33.0732 6.12813 34.4189 6.88379 33.6322 6.02461C33.9428 6.08672 32.773 4.84453 33.9738 5.93145C33.3217 5.15508 35.2471 5.38281 34.1084 4.80313C35.775 5.26895 34.7916 4.84453 33.8082 4.42012C31.0961 2.80527 38.601 6.6043 35.5369 4.91699C37.4934 5.34141 31.3549 3.40566 34.1498 4.25449C33.0836 3.78867 34.1187 4.04746 35.0814 4.34766C33.3527 3.80938 30.7648 2.80527 30.8684 2.76387C31.4688 2.80527 32.0588 2.93984 32.6281 3.10547C34.3982 3.6334 32.1209 2.98125 32.6074 2.9916C38.6941 4.55469 44.0252 8.6332 47.2652 13.9643C48.0209 14.7613 50.0809 20.0303 49.0043 17.6908C49.4908 19.5541 49.5633 21.5623 49.8221 23.467C49.2838 22.8666 48.6834 20.6514 48.1658 19.4195C47.9484 19.8957 47.7 18.7467 46.9029 18.4361Z" fill="black"/>
</svg>
