<svg width="162" height="162" viewBox="0 0 162 162" fill="none" xmlns="http://www.w3.org/2000/svg">
<path d="M121.626 74.5909H41.0553V41.0195H121.626V74.5909ZM111.555 114.877C108.884 114.877 106.322 113.816 104.434 111.927C102.545 110.038 101.484 107.476 101.484 104.805C101.484 102.134 102.545 99.5724 104.434 97.6836C106.322 95.7949 108.884 94.7338 111.555 94.7338C114.226 94.7338 116.788 95.7949 118.677 97.6836C120.565 99.5724 121.626 102.134 121.626 104.805C121.626 107.476 120.565 110.038 118.677 111.927C116.788 113.816 114.226 114.877 111.555 114.877ZM51.1267 114.877C48.4556 114.877 45.8939 113.816 44.0051 111.927C42.1163 110.038 41.0553 107.476 41.0553 104.805C41.0553 102.134 42.1163 99.5724 44.0051 97.6836C45.8939 95.7949 48.4556 94.7338 51.1267 94.7338C53.7978 94.7338 56.3595 95.7949 58.2482 97.6836C60.137 99.5724 61.1981 102.134 61.1981 104.805C61.1981 107.476 60.137 110.038 58.2482 111.927C56.3595 113.816 53.7978 114.877 51.1267 114.877ZM27.6267 108.162C27.6267 114.071 30.2453 119.375 34.341 123.068V135.019C34.341 136.8 35.0484 138.508 36.3075 139.767C37.5667 141.026 39.2745 141.734 41.0553 141.734H47.7695C49.5503 141.734 51.2581 141.026 52.5172 139.767C53.7764 138.508 54.4838 136.8 54.4838 135.019V128.305H108.198V135.019C108.198 136.8 108.905 138.508 110.165 139.767C111.424 141.026 113.131 141.734 114.912 141.734H121.626C123.407 141.734 125.115 141.026 126.374 139.767C127.633 138.508 128.341 136.8 128.341 135.019V123.068C132.436 119.375 135.055 114.071 135.055 108.162V41.0195C135.055 17.5196 111.018 14.1624 81.3409 14.1624C51.6638 14.1624 27.6267 17.5196 27.6267 41.0195V108.162Z" fill="black"/>
</svg>
