<svg width="163" height="162" viewBox="0 0 163 162" fill="none" xmlns="http://www.w3.org/2000/svg">
<path d="M58.0554 101.512C59.8361 101.512 61.5439 102.219 62.8031 103.478C64.0622 104.738 64.7696 106.445 64.7696 108.226C64.7696 110.007 64.0622 111.715 62.8031 112.974C61.5439 114.233 59.8361 114.94 58.0554 114.94C56.2746 114.94 54.5668 114.233 53.3077 112.974C52.0485 111.715 51.3411 110.007 51.3411 108.226C51.3411 106.445 52.0485 104.738 53.3077 103.478C54.5668 102.219 56.2746 101.512 58.0554 101.512ZM47.984 61.2263H115.127V94.7976H47.984V61.2263ZM105.055 101.512C106.836 101.512 108.544 102.219 109.803 103.478C111.062 104.738 111.77 106.445 111.77 108.226C111.77 110.007 111.062 111.715 109.803 112.974C108.544 114.233 106.836 114.94 105.055 114.94C103.275 114.94 101.567 114.233 100.308 112.974C99.0484 111.715 98.341 110.007 98.341 108.226C98.341 106.445 99.0484 104.738 100.308 103.478C101.567 102.219 103.275 101.512 105.055 101.512ZM121.841 107.42V61.2263C121.841 43.6349 103.847 41.0835 81.5553 41.0835C61.4125 41.0835 41.2697 43.5677 41.2697 61.2263V107.42C41.2697 112.086 43.1231 116.56 46.4221 119.859C48.0556 121.493 49.9949 122.789 52.1291 123.673C54.2634 124.557 56.5509 125.012 58.8611 125.012L51.3411 132.532V135.083H62.5539L72.6253 125.012H91.6267L101.698 135.083H111.77V132.532L104.182 125.012C113.918 125.012 121.841 117.156 121.841 107.42ZM120.498 19.5978C138.425 26.5806 148.698 41.4192 148.698 60.2863V148.512H14.4126V60.2863C14.4126 41.4192 24.6854 26.5806 42.6125 19.5978C54.6982 14.8307 69.0668 14.2264 81.5553 14.2264C94.0439 14.2264 108.412 14.8307 120.498 19.5978Z" fill="black"/>
</svg>
