<svg width="163" height="162" viewBox="0 0 163 162" fill="none" xmlns="http://www.w3.org/2000/svg">
<path d="M81.4454 14.1624C54.5883 14.1624 27.7312 17.5196 27.7312 41.0195V104.805C27.7312 111.038 30.2071 117.015 34.6142 121.422C39.0213 125.829 44.9986 128.305 51.2311 128.305L41.1597 138.377V141.734H56.1326L69.5611 128.305H94.8739L108.302 141.734H121.731V138.377L111.66 128.305C117.892 128.305 123.869 125.829 128.277 121.422C132.684 117.015 135.16 111.038 135.16 104.805V41.0195C135.16 17.5196 111.122 14.1624 81.4454 14.1624ZM51.2311 114.877C48.56 114.877 45.9983 113.816 44.1096 111.927C42.2208 110.038 41.1597 107.476 41.1597 104.805C41.1597 102.134 42.2208 99.5724 44.1096 97.6836C45.9983 95.7949 48.56 94.7338 51.2311 94.7338C53.9023 94.7338 56.464 95.7949 58.3527 97.6836C60.2415 99.5724 61.3026 102.134 61.3026 104.805C61.3026 107.476 60.2415 110.038 58.3527 111.927C56.464 113.816 53.9023 114.877 51.2311 114.877ZM74.7311 67.8767H41.1597V41.0195H74.7311V67.8767ZM88.1596 67.8767V41.0195H121.731V67.8767H88.1596ZM111.66 114.877C108.988 114.877 106.427 113.816 104.538 111.927C102.649 110.038 101.588 107.476 101.588 104.805C101.588 102.134 102.649 99.5724 104.538 97.6836C106.427 95.7949 108.988 94.7338 111.66 94.7338C114.331 94.7338 116.892 95.7949 118.781 97.6836C120.67 99.5724 121.731 102.134 121.731 104.805C121.731 107.476 120.67 110.038 118.781 111.927C116.892 113.816 114.331 114.877 111.66 114.877Z" fill="black"/>
</svg>
