<svg width="59" height="58" viewBox="0 0 59 58" fill="none" xmlns="http://www.w3.org/2000/svg">
<path d="M22.2899 0.243652C27.9512 0.243652 33.3807 2.49261 37.3838 6.49578C41.387 10.499 43.636 15.9284 43.636 21.5898C43.636 26.877 41.6984 31.7374 38.5129 35.4811L39.3996 36.3678H41.994L58.414 52.7879L53.488 57.7139L37.0679 41.2939V38.6995L36.1813 37.8128C32.3079 41.1191 27.3824 42.9356 22.2899 42.9359C16.6285 42.9359 11.1991 40.6869 7.19591 36.6837C3.19274 32.6806 0.943787 27.2511 0.943787 21.5898C0.943787 15.9284 3.19274 10.499 7.19591 6.49578C11.1991 2.49261 16.6285 0.243652 22.2899 0.243652ZM22.2899 6.81169C14.0798 6.81169 7.51182 13.3797 7.51182 21.5898C7.51182 29.7998 14.0798 36.3678 22.2899 36.3678C30.4999 36.3678 37.0679 29.7998 37.0679 21.5898C37.0679 13.3797 30.4999 6.81169 22.2899 6.81169Z" fill="black"/>
</svg>
