<svg width="186" height="61" viewBox="0 0 186 61" fill="none" xmlns="http://www.w3.org/2000/svg">
<path d="M153.801 23.2948C155.677 20.7857 157.774 18.9428 160.053 17.7535C162.346 16.5641 164.977 15.976 167.96 15.976C173.222 15.976 177.546 18.0803 180.92 22.2755C184.307 26.4707 186 31.8815 186 38.4814C186 45.0945 184.307 50.5051 180.92 54.7004C177.546 58.8957 173.222 60.9998 167.96 60.9998C164.977 60.9998 162.346 60.4118 160.053 59.2224C157.774 58.0331 155.677 56.1903 153.801 53.681V59.8889H140.137V0.306091H153.801V23.2948V23.2948Z" fill="#010405"/>
<path d="M114.199 20.7442H128.21V59.8889H114.199V20.7442Z" fill="#010405"/>
<path d="M162.88 51.0411C165.798 51.0411 168.038 49.9694 169.575 47.826C171.112 45.6828 171.88 42.5722 171.88 38.4815C171.88 34.404 171.112 31.2934 169.575 29.1501C168.038 27.0067 165.798 25.9351 162.88 25.9351C159.949 25.9351 157.709 27.0067 156.146 29.1632C154.583 31.3195 153.801 34.43 153.801 38.4815C153.801 42.5461 154.583 45.6566 156.146 47.813C157.709 49.9694 159.949 51.0411 162.88 51.0411Z" fill="#959595"/>
<path d="M114.199 0.000125176L128.21 0V14.5794H114.199V0.000125176Z" fill="#010405"/>
<path d="M94.2905 6.25881e-05V21.1592H103.497V29.0242H94.2905V44.9901C94.2905 46.9895 94.6977 48.3289 95.506 49.0284C96.3135 49.7271 97.9101 50.0871 100.314 50.0871H103.978V59.889H95.506C89.9767 59.889 86.0497 58.765 83.7392 56.504C81.4287 54.2432 80.2799 50.4008 80.2799 44.99V29.0242H73.3214V21.1592H80.2799V0H94.2904L94.2905 6.2588e-05L94.2905 6.25881e-05Z" fill="#010405"/>
<path fill-rule="evenodd" clip-rule="evenodd" d="M0 0.00012207V38.1367L56.7021 0.00012207H0Z" fill="#010405"/>
<path fill-rule="evenodd" clip-rule="evenodd" d="M21.6328 59.5807H61.0852L61.2266 5.9494L21.6328 59.5807Z" fill="#010405"/>
<path d="M14.4262 46.0228H0V59.5806H14.4262V46.0228Z" fill="#010405"/>
</svg>
