<svg width="71" height="58" viewBox="0 0 71 58" fill="none" xmlns="http://www.w3.org/2000/svg">
<path d="M70.1465 7.4333C67.5234 8.59358 64.7417 9.35559 61.8935 9.69412C64.8956 7.89863 67.1425 5.07288 68.2155 1.74345C65.3981 3.42017 62.3092 4.59524 59.0898 5.23089C56.9273 2.91708 54.0609 1.38255 50.9363 0.86587C47.8116 0.349185 44.6038 0.879291 41.8116 2.37378C39.0193 3.86826 36.799 6.24339 35.4959 9.12992C34.1927 12.0164 33.8797 15.2526 34.6056 18.3354C28.8921 18.049 23.3026 16.5643 18.2002 13.9775C13.0977 11.3908 8.59628 7.75987 4.98815 3.32053C3.71099 5.51418 3.03984 8.00787 3.04343 10.5462C3.04343 15.5283 5.57912 19.9297 9.4342 22.5066C7.15279 22.4348 4.9216 21.8186 2.92661 20.7096V20.8883C2.9273 24.2063 4.07547 27.422 6.17645 29.9902C8.27742 32.5583 11.2019 34.3208 14.454 34.9789C12.3362 35.5528 10.1156 35.6374 7.9602 35.2263C8.87713 38.0823 10.6643 40.5801 13.0714 42.3699C15.4786 44.1597 18.3852 45.1519 21.3843 45.2076C18.4035 47.5485 14.9907 49.279 11.3407 50.3001C7.69077 51.3213 3.87536 51.6129 0.11261 51.1585C6.68101 55.3827 14.3273 57.6253 22.1367 57.618C48.5691 57.618 63.0239 35.721 63.0239 16.7308C63.0239 16.1124 63.0067 15.487 62.9792 14.8755C65.7928 12.842 68.221 10.323 70.1499 7.43673L70.1465 7.4333Z" fill="black"/>
</svg>
