<svg width="44" height="44" viewBox="0 0 44 44" fill="none" xmlns="http://www.w3.org/2000/svg">
<path d="M22 0.666687C24.829 0.666687 27.5421 1.79049 29.5425 3.79088C31.5429 5.79127 32.6667 8.50438 32.6667 11.3334C32.6667 14.1623 31.5429 16.8754 29.5425 18.8758C27.5421 20.8762 24.829 22 22 22C19.171 22 16.4579 20.8762 14.4575 18.8758C12.4572 16.8754 11.3334 14.1623 11.3334 11.3334C11.3334 8.50438 12.4572 5.79127 14.4575 3.79088C16.4579 1.79049 19.171 0.666687 22 0.666687ZM22 27.3334C33.7867 27.3334 43.3334 32.1067 43.3334 38V43.3334H0.666687V38C0.666687 32.1067 10.2134 27.3334 22 27.3334Z" fill="black"/>
</svg>
