<svg width="135" height="135" viewBox="0 0 135 135" fill="none" xmlns="http://www.w3.org/2000/svg">
<path d="M87.6038 26.6102C87.1524 24.958 86.0665 23.5512 84.5825 22.696C83.0985 21.8408 81.3368 21.6067 79.681 22.0445L56.8524 28.1545L27.041 0.491684L18.7825 2.70739L36.6425 33.5259L15.2239 39.233L6.76393 32.653L0.519653 34.3316L11.6654 53.6687L82.971 34.6002C86.4624 33.593 88.4767 30.0345 87.6038 26.6102ZM128.091 54.0044L121.377 67.433H87.8053L81.091 54.0044L87.8053 47.2901H101.234V33.8616H107.948V47.2901H121.377L128.091 54.0044ZM134.805 121.147V134.576H0.519653V121.147H87.8053V74.1472H121.377V121.147H134.805Z" fill="black"/>
</svg>
